<svg xmlns="http://www.w3.org/2000/svg" width="400" height="107" viewbox="0 0 400 107"><title>Nested</title><g fill="none"><g fill="#353F52" fill-rule="nonzero"><path d="M364.2 93.7c12.6 0 22.7-10.6 22.7-23.8 0-13.2-10.2-23.8-22.7-23.8s-22.7 10.6-22.7 23.8c0 13.2 10.1 23.8 22.7 23.8zM384.4.8V.7h15.3v105h-15.3v-5.5c-6.1 4-12 6.5-20 6.5-20.9 0-38-16.4-38-36.7 0-20.2 17.1-36.7 38-36.7 7.4 0 14.3 2.1 20 5.7V.8zM264.7 62.7h39.4c-1.7-10.2-9.9-17.3-19-17.3-9.2 0-18.4 6.8-20.4 17.3zm20.8-29.5c18.6 0 34.2 12.3 34.2 35.1 0 1.5 0 2.8-.1 5.1H264c.8 11.5 10 20.2 21.8 20.2 9.9 0 16.5-4.5 20.2-10.8l11.9 7.6c-5.7 8.9-15 14.9-27.5 16.2-21.6 2.1-41.2-13.8-41.7-35.5-.5-21.2 15.1-37.9 36.8-37.9zm-109.3 73.2c-11.7 0-22.5-4.7-27.5-14.5l11.2-8c2.8 5.8 9.6 9.3 17 9.3 5.8 0 10.5-2.5 10.5-7.4 0-4.2-3-6.6-11.3-9.1l-6-1.8c-11.9-3.5-18.1-11-18-21.4.1-12.1 10.4-20 24.5-20 9.3 0 17.5 3.2 23.1 9.9l-9.1 9.5c-3.9-4.2-8.7-6.6-14.5-6.6-5.5 0-9.6 2.3-9.6 6.2 0 3.7 2.2 5.8 9.6 8l7 2.3c12.2 3.7 18.9 10.8 18.9 21.8-.2 14-11 21.8-25.8 21.8zM88.1 62.7h39.4c-1.7-10.2-9.9-17.3-19-17.3S90 52.2 88.1 62.7zm20.8-29.5c18.6 0 34.2 12.3 34.2 35.1 0 1.5 0 2.8-.1 5.1H87.3c.8 11.5 10 20.2 21.8 20.2 9.9 0 16.5-4.5 20.2-10.8l11.9 7.6c-5.7 8.9-15 14.9-27.5 16.2-21.6 2.1-41.2-13.8-41.7-35.5-.4-21.2 15.1-37.9 36.9-37.9zm-93.3 2.5v9.5c4.2-7 12.2-10.8 21.2-10.8 16.2 0 26.7 11.4 26.7 29.2v42.2H48V66.2c0-11-7.2-17.8-16-17.8-8.9 0-16.5 6.7-16.5 17.8v39.6H0V35.7h15.6zm226.2 54.1c2.2 4.7 5.1 9 8.7 12.8-4 2.5-9.1 3.9-15 3.9-17.1 0-26.5-11-26.2-29.4V14.5h15.3v20.4H245v13.6h-20.2v28.7c-.1 10.5 2.9 14 10.8 14 2.5-.2 4.6-.5 6.2-1.4z"/></g></g></svg>